<svg width="14" height="14" viewBox="0 0 14 14" fill="none" xmlns="http://www.w3.org/2000/svg">
<path d="M6.0988 1.44458C6.38203 0.518186 7.68524 0.495437 8.00063 1.41138L8.89094 3.99705C9.03199 4.40667 9.42075 4.67889 9.85391 4.67133L12.5882 4.6236C13.5567 4.6067 13.9811 5.8391 13.2074 6.42209L11.0234 8.06784C10.6774 8.32857 10.5387 8.78242 10.6797 9.19205L11.57 11.7777C11.8854 12.6937 10.8445 13.4781 10.0509 12.9224L7.81085 11.3539C7.45597 11.1054 6.98144 11.1137 6.63545 11.3744L4.45146 13.0202C3.6778 13.6032 2.61011 12.8556 2.89334 11.9292L3.69288 9.31401C3.81954 8.89971 3.66503 8.45097 3.31015 8.20248L1.07005 6.63395C0.276519 6.07831 0.657598 4.83185 1.62617 4.81495L4.36041 4.76722C4.79357 4.75966 5.1726 4.47404 5.29927 4.05974L6.0988 1.44458Z" fill="#090B18"/>
</svg>
