<svg width="19" height="16" viewBox="0 0 19 16" fill="none" xmlns="http://www.w3.org/2000/svg">
<path fill-rule="evenodd" clip-rule="evenodd" d="M1.12017 14.7781C0.96409 14.5372 0.910101 14.2442 0.970079 13.9635C1.03006 13.6828 1.19909 13.4374 1.43999 13.2813L15.0533 4.46125L8.62716 3.08976C8.34609 3.0297 8.1004 2.86046 7.94412 2.61925C7.78784 2.37804 7.73379 2.08464 7.79384 1.80357C7.85389 1.52251 8.02314 1.27682 8.26435 1.12054C8.50555 0.964261 8.79896 0.910204 9.08002 0.970257L18.0609 2.88918C18.2002 2.91875 18.3323 2.9755 18.4495 3.05618C18.5668 3.13687 18.6671 3.2399 18.7445 3.35937C18.8219 3.47885 18.8749 3.61242 18.9006 3.75244C18.9264 3.89246 18.9242 4.03618 18.8943 4.17536L16.9753 13.1563C16.9153 13.4373 16.746 13.683 16.5048 13.8393C16.2636 13.9956 15.9702 14.0497 15.6892 13.9896C15.4081 13.9295 15.1624 13.7603 15.0061 13.5191C14.8498 13.2779 14.7958 12.9845 14.8558 12.7034L16.2303 6.27789L2.61699 15.098C2.37609 15.254 2.08305 15.308 1.80234 15.2481C1.52164 15.1881 1.27625 15.019 1.12017 14.7781Z" fill="white"/>
</svg>
