<svg width="28" height="28" viewBox="0 0 28 28" fill="none" xmlns="http://www.w3.org/2000/svg">
<path d="M19.4513 11.0981C19.6099 10.9287 19.6947 10.7032 19.6871 10.4713C19.6795 10.2393 19.58 10.0199 19.4106 9.86128C19.2412 9.70267 19.0157 9.61784 18.7838 9.62547C18.5518 9.6331 18.3324 9.73256 18.1738 9.90197L12.2592 16.2195L9.82628 13.6207C9.74774 13.5368 9.65345 13.4692 9.54879 13.4218C9.44413 13.3744 9.33115 13.348 9.2163 13.3442C8.98436 13.3366 8.75888 13.4214 8.58947 13.58C8.42006 13.7386 8.3206 13.9581 8.31297 14.19C8.30534 14.422 8.39017 14.6474 8.54878 14.8168L11.6205 18.0981C11.7023 18.1855 11.8012 18.2552 11.9111 18.3029C12.021 18.3505 12.1395 18.3751 12.2592 18.3751C12.379 18.3751 12.4975 18.3505 12.6073 18.3029C12.7172 18.2552 12.8161 18.1855 12.898 18.0981L19.4513 11.0981Z" fill="white"/>
<path fill-rule="evenodd" clip-rule="evenodd" d="M16.5462 1.88037C15.8559 1.2341 14.9456 0.874512 14 0.874512C13.0543 0.874512 12.1441 1.2341 11.4537 1.88037L10.2134 3.04149C9.8641 3.36881 9.40781 3.55817 8.92937 3.57437L7.23099 3.63037C6.28597 3.66161 5.38817 4.05098 4.71958 4.71958C4.05098 5.38818 3.6616 6.28597 3.63036 7.23099L3.57436 8.92893C3.5585 9.40762 3.36928 9.86425 3.04193 10.2139L1.88124 11.4542C1.23522 12.1445 0.875793 13.0546 0.875793 14C0.875793 14.9454 1.23522 15.8555 1.88124 16.5458L3.04193 17.7866C3.36918 18.1361 3.55818 18.5929 3.57436 19.0715L3.63036 20.7694C3.6616 21.7145 4.05098 22.6122 4.71958 23.2808C5.38817 23.9494 6.28597 24.3388 7.23099 24.3701L8.92937 24.4261C9.40789 24.4421 9.86434 24.6313 10.2139 24.9585L11.4546 26.1192C12.1449 26.7652 13.055 27.1246 14.0004 27.1246C14.9459 27.1246 15.8559 26.7652 16.5462 26.1192L17.787 24.9585C18.1366 24.6312 18.5932 24.442 19.0719 24.4261L20.7699 24.3701C21.7149 24.3388 22.6127 23.9494 23.2813 23.2808C23.9499 22.6122 24.3393 21.7145 24.3705 20.7694L24.4265 19.0715C24.4424 18.5928 24.6316 18.1362 24.9589 17.7866L26.1201 16.5458C26.7661 15.8555 27.1255 14.9454 27.1255 14C27.1255 13.0546 26.7661 12.1445 26.1201 11.4542L24.9589 10.2134C24.6317 9.8639 24.4425 9.40746 24.4265 8.92893L24.3705 7.23056C24.3393 6.28553 23.9499 5.38774 23.2813 4.71914C22.6127 4.05055 21.7149 3.66117 20.7699 3.62993L19.0719 3.57393C18.5932 3.55806 18.1366 3.36885 17.787 3.04149L16.5462 1.88037ZM12.6499 3.15787C13.0159 2.81523 13.4986 2.6246 14 2.6246C14.5014 2.6246 14.984 2.81523 15.3501 3.15787L16.5909 4.31943C17.2501 4.93629 18.1109 5.29278 19.0133 5.32262L20.7117 5.37906C21.2128 5.39566 21.6888 5.60214 22.0433 5.95666C22.3978 6.31117 22.6043 6.78721 22.6209 7.28831L22.6774 8.98668C22.7072 9.88904 23.0637 10.7499 23.6806 11.4091L24.8417 12.6499C25.1843 13.0159 25.3749 13.4986 25.3749 14C25.3749 14.5014 25.1843 14.984 24.8417 15.3501L23.6806 16.5909C23.0635 17.2501 22.7069 18.1109 22.6769 19.0133L22.6209 20.7117C22.6043 21.2128 22.3978 21.6888 22.0433 22.0433C21.6888 22.3978 21.2128 22.6043 20.7117 22.6209L19.0133 22.6774C18.1108 22.7071 17.2498 23.0636 16.5904 23.6806L15.3501 24.8417C14.984 25.1843 14.5014 25.3749 14 25.3749C13.4986 25.3749 13.0159 25.1843 12.6499 24.8417L11.4096 23.6806C10.7502 23.0634 9.88924 22.7068 8.98668 22.6769L7.2883 22.6209C6.78721 22.6043 6.31117 22.3978 5.95665 22.0433C5.60213 21.6888 5.39565 21.2128 5.37905 20.7117L5.32305 19.0133C5.2932 18.1107 4.93655 17.2497 4.31943 16.5904L3.1583 15.3501C2.81567 14.984 2.62503 14.5014 2.62503 14C2.62503 13.4986 2.81567 13.0159 3.1583 12.6499L4.31943 11.4096C4.93655 10.7503 5.2932 9.88925 5.32305 8.98668L5.37905 7.28831C5.39565 6.78721 5.60213 6.31117 5.95665 5.95666C6.31117 5.60214 6.78721 5.39566 7.2883 5.37906L8.98668 5.32305C9.88924 5.2932 10.7502 4.93655 11.4096 4.31943L12.6499 3.15787Z" fill="white"/>
</svg>
