<svg width="25" height="25" viewBox="0 0 25 25" fill="none" xmlns="http://www.w3.org/2000/svg">
<path d="M20.8333 16.6668C20.8333 16.8721 20.7928 17.0753 20.7142 17.2649C20.6355 17.4545 20.5204 17.6268 20.3752 17.7719C20.23 17.917 20.0576 18.0321 19.868 18.1105C19.6783 18.189 19.475 18.2294 19.2698 18.2293C19.0645 18.2292 18.8613 18.1888 18.6717 18.1101C18.4821 18.0315 18.3098 17.9163 18.1647 17.7712C18.0196 17.626 17.9046 17.4536 17.8261 17.264C17.7476 17.0743 17.7072 16.871 17.7073 16.6658C17.7074 16.2512 17.8722 15.8537 18.1655 15.5607C18.4587 15.2677 18.8563 15.1031 19.2708 15.1033C19.6854 15.1034 20.0829 15.2682 20.3759 15.5614C20.6689 15.8547 20.8335 16.2523 20.8333 16.6668ZM23.9583 8.33349C23.6821 8.33349 23.4171 8.44323 23.2218 8.63858C23.0264 8.83393 22.9167 9.09889 22.9167 9.37515V21.8752C22.9167 22.4491 22.45 22.9168 21.875 22.9168H5.20833C3.48542 22.9168 2.08333 21.5147 2.08333 19.7918V9.36994C2.98412 10.0474 4.08019 10.4147 5.20729 10.4168H15.624C15.9002 10.4168 16.1652 10.3071 16.3605 10.1117C16.5559 9.91637 16.6656 9.65142 16.6656 9.37515C16.6656 9.09889 16.5559 8.83393 16.3605 8.63858C16.1652 8.44323 15.9002 8.33349 15.624 8.33349H5.20833C4.77168 8.33024 4.34056 8.2355 3.94279 8.05536C3.54501 7.87522 3.18942 7.61369 2.89896 7.28765C3.18947 6.96226 3.54525 6.7017 3.94315 6.52295C4.34104 6.34419 4.77213 6.25124 5.20833 6.25015H12.5C12.7763 6.25015 13.0412 6.14041 13.2366 5.94505C13.4319 5.7497 13.5417 5.48475 13.5417 5.20849C13.5417 4.93222 13.4319 4.66727 13.2366 4.47192C13.0412 4.27657 12.7763 4.16682 12.5 4.16682H5.20833C2.08333 4.16682 0 6.77099 0 9.37515V19.7918C0 22.6637 2.33646 25.0002 5.20833 25.0002H21.875C23.5979 25.0002 25 23.5981 25 21.8752V9.37515C25 9.09889 24.8903 8.83393 24.6949 8.63858C24.4996 8.44323 24.2346 8.33349 23.9583 8.33349ZM17.399 4.38661L18.75 3.05224V9.37515C18.75 9.65142 18.8597 9.91637 19.0551 10.1117C19.2504 10.3071 19.5154 10.4168 19.7917 10.4168C20.0679 10.4168 20.3329 10.3071 20.5282 10.1117C20.7236 9.91637 20.8333 9.65142 20.8333 9.37515V3.07099L22.1906 4.39182C22.2886 4.48716 22.4043 4.56228 22.5313 4.61289C22.6583 4.6635 22.794 4.6886 22.9307 4.68676C23.0673 4.68492 23.2023 4.65618 23.3279 4.60218C23.4535 4.54818 23.5672 4.46997 23.6625 4.37203C23.7578 4.27408 23.833 4.15832 23.8836 4.03134C23.9342 3.90437 23.9593 3.76867 23.9574 3.63199C23.9556 3.49531 23.9269 3.36034 23.8729 3.23477C23.8189 3.1092 23.7407 2.9955 23.6427 2.90015L21.3229 0.641818C20.9123 0.232758 20.3565 0.00273574 19.7769 0.00195512C19.1973 0.0011745 18.6409 0.229699 18.2292 0.637652L15.9333 2.90536C15.836 3.00153 15.7586 3.11592 15.7055 3.24201C15.6523 3.3681 15.6246 3.50342 15.6237 3.64025C15.6221 3.91657 15.7303 4.18223 15.9245 4.3788C16.1187 4.57536 16.383 4.68672 16.6594 4.68838C16.9357 4.69004 17.2014 4.58187 17.3979 4.38765L17.399 4.38661Z" fill="white"/>
</svg>
